<svg xmlns="http://www.w3.org/2000/svg" viewBox="0 0 1156.5 1219.54"><title>sil-</title><rect x="-3547.03" y="-3591.98" width="5000" height="5000" style="fill:#fff"/><path d="M784.42,810.86l24.31-4.73c-44.06-25.3-70.69-57.9-86.32-84.26a36.7,36.7,0,0,1-2.36-32.51c3.41-8.41,7.92-17.94,12.58-23.54l0-.06a36.43,36.43,0,0,1,21.66-12.31C809.75,644,1004,595.19,928.87,413.6c5.28-16.85,9-37.26,3.42-52.43-5.2-14.05-15.61-26-25.42-34.8-16.16-14.55-3.64-35.48-3.21-57.22q0-.93,0-1.89a70.51,70.51,0,0,0-18.53-49.19c-28.86-31.69-39.07-70.94-39.07-70.94C777.42-17.71,578.25.61,578.25.61S379.08-17.71,310.4,147.12c0,0-10.31,39.65-39.51,71.43a69.41,69.41,0,0,0-18.09,48.71q0,1,0,1.89c.43,21.74,13,42.68-3.21,57.22-9.81,8.82-20.22,20.75-25.42,34.8-5.62,15.17-1.86,35.58,3.42,52.43C152.49,595.19,346.76,644,402.16,653.46a36.43,36.43,0,0,1,21.66,12.31l0,.06c4.65,5.6,9.16,15.12,12.58,23.54a36.7,36.7,0,0,1-2.36,32.51c-15.63,26.36-42.26,59-86.32,84.26l24.31,4.73C243.29,921.54,0,928.47,0,1046v173.54H1156.5V1046C1156.5,928.47,913.22,921.54,784.42,810.86Z" style="fill:#86c666"/></svg>