<svg xmlns="http://www.w3.org/2000/svg" xmlns:xlink="http://www.w3.org/1999/xlink" viewBox="0 0 1157.6 1401.89"><defs><linearGradient id="a" y1="700.95" x2="1157.6" y2="700.95" gradientUnits="userSpaceOnUse"><stop offset="0" stop-color="#fff"/><stop offset="1"/></linearGradient></defs><title>sil-</title><rect x="-3546.49" y="-1792.49" width="5000" height="5000" style="fill:#fff"/><path d="M785,992.67l24.31-4.73c-88.44-50.77-99.36-131-99.36-131s68.61-54.6,89.36-159.42c31.12,10.92,36-27.3,36-27.3s7.21-23.74,13.1-55.32c3.63-19.48,5.4-41.89,8.74-63.69,5.46-51.32-26.21-28.39-26.21-28.39,6.55-86.26-11.46-229.85-57.32-289.9s-97-69-97-69S745.93,20.17,595.54,2c0,0-11.4-1.72-16.74-1.44C573.45.29,562.06,2,562.06,2,411.67,20.17,481,163.88,481,163.88s-51.12,9-97,69-63.88,203.64-57.32,289.9c0,0-31.67-22.93-26.21,28.39,3.33,21.8,5.1,44.22,8.74,63.69,5.89,31.59,13.1,55.32,13.1,55.32s4.91,38.22,36,27.3c20.75,104.82,89.36,159.42,89.36,159.42s-10.92,80.26-99.36,131l24.31,4.73C243.83,1103.35.55,1110.27.55,1227.8v173.54h1156.5V1227.8C1157.05,1110.27,913.76,1103.35,785,992.67Z" style="fill:#fecb43"/><path d="M1157.6,1401.89H0V1227.8c0-68.49,81.49-99.37,175.85-135.13C242.21,1067.52,317.39,1039,371.42,993l-24.64-4.79,1.27-.73c45.57-26.16,70.09-60.3,82.64-84.33,12.68-24.29,16-43.39,16.41-46-2.18-1.79-18.46-15.52-36.75-40.3a300.25,300.25,0,0,1-52.43-118.62A32,32,0,0,1,347.84,700c-22,0-26.05-29.44-26.09-29.74s-7.27-24-13.1-55.29c-2.09-11.23-3.55-23.22-5.08-35.92-1.1-9.12-2.24-18.55-3.66-27.8-1.62-15.21-.14-25.46,4.4-30.51a10.85,10.85,0,0,1,8.42-3.62c5.56,0,11.12,3.17,13.3,4.57C320,439.49,336.6,294,383.55,232.56c42.59-55.77,90.34-67.72,96.63-69.08-3.16-6.93-30-68.77-5.18-114.15,14.53-26.54,43.79-42.65,87-47.86.09,0,11.51-1.73,16.84-1.44.36,0,.82,0,1.3,0a138,138,0,0,1,15.49,1.48c43.18,5.21,72.45,21.31,87,47.86,24.83,45.38-2,107.22-5.18,114.15,6.29,1.36,54,13.31,96.63,69.08,47,61.49,63.51,206.93,57.52,289.15,2.18-1.4,7.74-4.57,13.3-4.57a10.85,10.85,0,0,1,8.42,3.62c4.54,5,6,15.3,4.4,30.48-1.42,9.26-2.56,18.7-3.66,27.82-1.54,12.7-3,24.69-5.08,35.92-5.83,31.25-13,55.14-13.12,55.38S831.77,700,809.76,700a32,32,0,0,1-10.07-1.79,300.26,300.26,0,0,1-52.43,118.62c-18.29,24.78-34.57,38.51-36.75,40.3.41,2.6,3.75,21.74,16.44,46,12.54,24,37.06,58.14,82.61,84.29l1.27.73L786.18,993c54,46,129.2,74.53,195.57,99.68,94.36,35.76,175.85,66.64,175.85,135.13ZM1.09,1400.8H1156.5v-173c0-67.74-81.16-98.49-175.14-134.11-66.81-25.32-142.53-54-196.76-100.61l-.86-.74,24-4.66c-45-26.2-69.3-60.11-81.79-84-13.67-26.19-16.54-46.45-16.57-46.65l0-.31.24-.19c.17-.14,17.34-13.93,36.82-40.33a299.15,299.15,0,0,0,52.34-118.77l.12-.62.6.21a31.35,31.35,0,0,0,10.3,1.93c21.06,0,25-28.49,25-28.78s7.29-24.16,13.11-55.35c2.09-11.2,3.54-23.17,5.07-35.85,1.1-9.13,2.25-18.57,3.66-27.82,1.58-14.83.19-24.81-4.13-29.61a9.79,9.79,0,0,0-7.61-3.26c-6.62,0-13.54,5-13.61,5l-1,.69.09-1.18c6.21-81.83-10.21-228-57.21-289.53C728,174.05,677,164.51,676.54,164.42l-.71-.12.31-.65c.32-.66,31.44-66.39,5.5-113.79C667.29,23.64,638.3,7.73,595.48,2.56c-.12,0-11.41-1.71-16.65-1.43-.46,0-.9,0-1.36,0a136.86,136.86,0,0,0-15.33,1.46C519.29,7.73,490.31,23.64,476,49.85,450,97.25,481.14,163,481.46,163.64l.31.65-.71.13c-.51.09-51.45,9.63-96.64,68.81-47,61.55-63.43,207.69-57.21,289.53l.09,1.18-1-.69c-.07,0-7-5-13.61-5a9.79,9.79,0,0,0-7.61,3.26c-4.32,4.81-5.71,14.78-4.13,29.64,1.41,9.23,2.55,18.67,3.66,27.81,1.53,12.68,3,24.65,5.07,35.85,5.82,31.19,13,55,13.09,55.26s4,28.87,25,28.87a31.35,31.35,0,0,0,10.3-1.93l.59-.21.12.62A299.15,299.15,0,0,0,411.2,816.16c19.48,26.4,36.65,40.19,36.82,40.33l.24.19,0,.31c0,.2-2.9,20.46-16.57,46.65-12.49,23.94-36.81,57.85-81.79,84l24,4.66-.86.74c-54.23,46.6-129.95,75.29-196.76,100.61-94,35.61-175.14,66.37-175.14,134.11Z" style="fill:url(#a)"/></svg>