<svg xmlns="http://www.w3.org/2000/svg" viewBox="0 0 1299.92 1390.97"><title>sil-</title><rect x="-1843.05" y="-1797.79" width="5000" height="5000" style="fill:#fff"/><path d="M1190,1065.2c-115.78-57.06-304-178.9-311.24-187.22-1.29-1.47-2.63-2.89-4-4.28-13-13.13-31.12-49.48-52.92-72l0-.12c1.37-36.48,3.31-98.67,4.77-104.88C849.59,655,855.95,619,855.95,619s17.8,25.72,40.17-5.64c20.81-43.18,33.75-84.93,35.33-102.05.65-7.11-.55-21.27-2.45-28.16C921.3,455.35,900,464,900,464c18.22-125.86-4.4-234.49-31.36-258.8L855.24,188.1s5.64-3.88,7.75-18.67c-6.69,9.34-10.57,10.22-10.57,10.22a145.44,145.44,0,0,0,3.88-27.13c-7,15.86-14.09,18-14.09,18s8.63-10,10.92-21.85a49.77,49.77,0,0,1-30.3,14.09s-3.3-26.24-1.36-35.93c-8.15,4.75-11.32,3.17-11.32,3.17s13.74-18,15.5-32.06c-7.4,17.44-27.13,34.88-27.13,34.88s7-7.22,12.68-23.61c-9.16,9.16-17.26,12-17.26,12l-3.52-15.86-3.52,12.33s5.11-27,2.29-40.7c-4.93,12.33-13.57,25.19-13.57,25.19A33.71,33.71,0,0,0,772.44,87c-3.7-7.93-19.73-18.32-19.73-18.32s-5.11,1.94-9.16,0-23.61-24-23.61-24,3.17,12.33,0,18.32c-3,5.58-3.61,7.95-9.24,10.38a11.24,11.24,0,0,1-5.11,1c-7.47-.47-11.39-8.44-8.32-14.8,5.24-10.86,16-29,32.19-37.09-9.47,2-24.66,8.1-24.66,8.1L716,14a277.71,277.71,0,0,0-32.75,18.93,7.31,7.31,0,0,1-10.33-2C666.4,20.33,675.73.39,675.73.39S646.07,32.33,633.58,39.5L596.71,60.64s-.79-4.49,4.1-15.33c-14.14,8.46-25,25.37-25,25.37s-4.23-3.79-1.76-10.48c-7.4.53-22.55,13.21-22.55,13.21s-6,0-2.29-10.75c-19.2,7.58-36.47,32.06-36.47,32.06s-3-11,2.82-26.78c-12.29,8.68-27.39,46.26-32.06,51.79l-19,22.55s-3.74-10.44.71-34.35c-5.24,7.93-13,41.62-14.27,46-1.19,4.07-6,16.06-20.06,30.63a7.07,7.07,0,0,1-9.12.91,13.1,13.1,0,0,1-4.47-5.47l1.41,22.37s-16.38,21.84-20.08,15c-10.64,13.89-20.08,28.54-22.55,35.24-2.35,6.39-5.67,22.09-8.11,50.15a38.69,38.69,0,0,1-.93,6.1c-5.73,22.71,18.56,149.87,18.56,149.87C357,457.64,356,486.89,356,486.89s-.92,10.57,1.54,34.88c1.68,16.6,14,41.48,16.43,47.2,2.59,6,7.49,16.09,18,34.89,22.2,39.82,45.45,10.57,45.45,10.57s16.78,55.85,35.63,79.63l3,80c-.21.07-.13,17.28-.06,28.84-21.2,22.63-38.12,57.93-50.83,70.8-1.37,1.39-2.72,2.81-4,4.28-7.26,8.32-195.47,130.16-311.25,187.22A196.8,196.8,0,0,0,.07,1241.73V1390.9H1299.84V1241.73A196.8,196.8,0,0,0,1190,1065.2Z" style="fill:#faaa4f"/></svg>