<svg xmlns="http://www.w3.org/2000/svg" viewBox="0 0 1299.92 1376"><title>sil-</title><rect x="-228.5" y="-184.86" width="5000" height="5000" style="fill:#fff"/><path d="M1190,1050.23c-115.78-57.06-304-178.9-311.25-187.22-1.29-1.47-2.63-2.89-4-4.28-13-13.13-27.27-49.6-49.07-72.15H822.4c-1.13-21.58-1.28-55.8.14-62.65,3.08-14.85,10.86-23.13,20-50.13,12.3-52,19.66-74.52,19.66-74.52C930,576.12,929.86,513.87,933.85,491s7.48-34.25,5.79-54.75-21-28.7-21-28.7-5.55,9.65,6.27-28.46,9.17-79.83,7.72-96.47-15.19-51.85-15.19-51.85-10.85-62-23.88-68a15.33,15.33,0,0,0,1.21-15.68s-1.93-6-10.85-15c-2.17-7,0-11.82,0-11.82s-6.75-12.3-15.19-16.4C858.6,73,838.34,70.6,831.83,64.82a26.52,26.52,0,0,1-8-13.51,71.2,71.2,0,0,0-8.36-2.67A20.87,20.87,0,0,1,810,46.56c-7.17-3.89-4.46-1.41-11-2-6.27-3.86-6.27-2.65-6.75-12.54-14-7.48-16.4-4.82-19.29-4.58-2.65-7.48-12.06-8-12.06-8s-1.45,2.89-3.62,2.65-3.14-4.82-3.14-4.82a32.34,32.34,0,0,0-6.63-4.82c-2.89-.36-4.7,2.17-6.33,4.34-7.78-.18-9.41,4.7-13.2,4.52s-15.19-8.68-19.54-9.95-18.45,0-18.45,0C680.07-3.26,651.85,1.45,649,2.53c-29.3-8.14-40.44,6.16-65.12,10.67C536.26,18.27,505,37.44,505,37.44L469.52,55.89S462.1,59,449.8,59.51c-8.5-.36-11.21,6.87-12.18,11.58-14.59,3.14-6.15,15.68-6.15,15.68s-3.26-.6-4.94-.12.72,7.84,1.57,11.58c-11,7.6-8.08,11.82-9.16,15.92-21.71,8.68-22,19.86-24.6,25.32-9.16,17.85-13.14,18.33-15.07,24.84a90.84,90.84,0,0,0-2.65,15.19,112,112,0,0,0,1.79,27.23,37.63,37.63,0,0,1-1.94,21.45c-5.64,14.28-1.42-1.8-7.69,27.65s-5.06,45.58-2.65,75.13c-1.21,34.61,9.77,55,9.77,55s9.77,13.14,8.92,25.57c0,0-19.17,1.81-22.55,19.66s-.78,28.22-.78,28.22,6.78,24.87,7.29,34.73-1.69,84.41,73.32,111.18l14.83,68.49c11,32.41,17.15,34.95,19.27,49.45.85,5.85,1.71,43.67,1.47,63.33H474.2c-21.8,22.56-36.11,59-49.07,72.15-1.37,1.39-2.72,2.81-4,4.28-7.26,8.32-195.47,130.16-311.25,187.22A196.8,196.8,0,0,0,.07,1226.75v149.17H1299.84V1226.75A196.8,196.8,0,0,0,1190,1050.23Z" style="fill:#2976bc"/></svg>