<svg xmlns="http://www.w3.org/2000/svg" viewBox="0 0 1156.5 1299.9"><title>sil-</title><rect x="-1914.75" y="-260.89" width="5000" height="5000" style="fill:#fff"/><path d="M816.12,783.32l-4.92,5.13A50.21,50.21,0,0,0,816.12,783.32Z" style="fill:#231f20"/><path d="M767.9,875.77a40.81,40.81,0,0,0,.28-4.73,40.4,40.4,0,0,0-29.94-39l-.17-5.41a29.42,29.42,0,0,1,12.74-25.15c55.66-38.26,91.11-64,91.11-64s-12.19,29.73-25.8,45.87c45.42-47.65,53-63,53-63s-3.62,13.49-8.14,22.51c8.48-12,13.79-20.29,17-25.51q4.61-7.54,9.51-14.9c14.38-21.56,53.68-88.15,58.46-178.27,19.69-154.41-51.52-400.42-139.4-461,0,0-124.34-97-215.05-50.58C429.62-27.52,344.4,177.17,344.4,177.17s-151.26,319.89-36.5,465c0,0,48.1,53.29,103.11,109.61a49.4,49.4,0,0,1,14.06,34.48l0,44.46a40.41,40.41,0,0,0-38.64,47.24C262.45,1001.53,0,1004.28,0,1126.36V1299.9H1156.5V1126.36C1156.5,1003.58,891,1001.5,767.9,875.77Z" style="fill:#2bb673"/></svg>