<svg xmlns="http://www.w3.org/2000/svg" viewBox="0 0 1299.92 1406.66"><title>sil-</title><rect x="-3475.33" y="-151.11" width="5000" height="5000" style="fill:#fff"/><path d="M1190,1080.89c-115.78-57.06-304-178.9-311.25-187.22-1.29-1.47-2.63-2.89-4-4.28-13-13.13-33.33-49.6-55.13-72.15h.12l.12-60.45c27.06-57.45,29.88-73.32,30.67-118.43,0,0,14.1,3.52,21.77-6.17s24.32-49.44,28.29-70.85,1.59-17.26,6.87-74.81c1.67-47.31-25.27-24.66-32.91-17.33a.55.55,0,0,1-.9-.61c3.49-8.47,14.32-35.9,17.41-56.88,3.7-25.11.51-59.73,1.06-80.37.17-6.64.2-16.64.16-27.15.58-3.7,1.34-6.43,2.31-7.75,2.72-3.09,7,0,7,0s5.93-16.54,0-30.31c1.41-31.37-22.91-53.22-22.91-53.22s6.7-7.4,22.91,4.23C899.91,198.81,874,202.87,874,202.87s.88-16,22.38-38.95c-8.11,1.76-25,19.39-25,19.39s-6.7-12-17.45-5.82C857.61,136.07,837,132,837,132c-18.51-25.2-35.42-27.67-35.42-27.67s9.52,9.16,6,14.45l-13.39-8.46s-1.4-33.63-25-59.57C786.06,78.62,778.66,92,778.66,92s-8.11-32.78-27.85-41.24c26.17,31.49,18,39.83,18,39.83S751.87,53.24,727.9,43.72c23.62,30,23.26,40.89,23.26,40.89S717,29.62,687,23.28c13.75,20.44,8.81,27.14,8.81,27.14A54.05,54.05,0,0,0,660.67,22c24.06,18.24,28.33,26.51,25.64,28C676.79,53.5,648,42.4,648,34.73s3.7-12.16,19.3-25.2c-9.78,1.15-33.13,21.85-33.13,21.85s-4.41-3.52,6-10.22C632.91,19.4,613,32.44,613,32.44S610.7,23.9,620.22.37c-8.08,9.2-13.57,21.85-13.57,21.85S577.31,7.51,555.54,12c51.69,8.94,36.31,19,36.31,19A100.6,100.6,0,0,0,552,69.45c-.26-6.43,2.11-18.33,2.11-18.33s-5.55,7.4-8.46,21.85c-3.44-6,2.38-20,2.38-20s-9.25,6.61-11.9,15.33c-5-7.93,0-21.68,0-21.68s-9,7.4-12.42,22.47-5-12.16-5-12.16l-5.29,13.22c-4.23,10.57-8.31-13.24-4.23-34.9-5.55,12.42-4,33-4,33s-2.64-15.6-11.1-20.36c6.12,9.59,7.21,15.69,7.14,19a5.07,5.07,0,0,1-2.36,4.15l-2.77,1.77a5.07,5.07,0,0,1-5.23.14c-2.26-1.28-5-3.94-5.5-9.43-1.05,5,1.35,10.07,2.76,12.52a2,2,0,0,1-.51,2.62l-.61.48a3.5,3.5,0,0,1-3.57.45s-8-8.81-38.53-16.87c38.2,18.51,37,21.68,37,21.68s-23.53-.53-32.78,2.64c24.59,1.19,20.09,5.29,20.09,5.29a29.79,29.79,0,0,1-1.62,3.07,4.58,4.58,0,0,1-6.1,1.6,26.69,26.69,0,0,1-6.82-4.93s3,7.8,7.93,12.42c-8.2,5.15-3.17,11.9,0,15.6-11.76-3.57-14.8-2.38-14.8-2.38,10.71,4,9,13,9,13s-10.71-9-21.15-11.37c17,15.33,22.12,26.87,23.51,33.51a5,5,0,0,1-5.83,5.94c-6.57-1.29-16.54-5.76-20.05-20.68-1,2.84-.35,6.81.45,9.8a2.75,2.75,0,0,1-3.12,3.44l-2.72-.47a5.15,5.15,0,0,1-3.22-1.95c-3.67-4.78-15.24-19-27.35-24.31C418.91,144.84,418,150,418,150s-10.84-7.8-17.71-9.25A56.45,56.45,0,0,1,419.13,162s-22.14-15.14-37.89-21.5c29.61,30.67,33,63.18,33,63.18s-.26,14.8-3.44,18.51c4,2.38,5.42-2,5.42-2a77.23,77.23,0,0,1,3.11,9.08,10.21,10.21,0,0,1-2.75,9.83c-7.61,7.45-9.48,13.47-9.48,13.47l-10.93,6.87,10.22-.7s-.41,24.13-.51,46.17c0,10.63,0,20.78.15,27.49.54,20.63-2.64,55.25,1.06,80.36,3.09,21,13.93,48.41,17.41,56.88a.55.55,0,0,1-.9.61c-7.63-7.33-34.57-30-32.91,17.33,5.29,57.55,2.91,53.4,6.87,74.81s20.62,61.15,28.29,70.85,21.77,6.17,21.77,6.17c.78,45.12,3.6,61,30.67,118.43l.17,59.4h.22c-21.8,22.56-40.65,59-53.62,72.15-1.37,1.39-2.72,2.81-4,4.28-7.26,8.32-195.47,130.16-311.25,187.22A196.8,196.8,0,0,0,.07,1257.42v149.17H1299.84V1257.42A196.8,196.8,0,0,0,1190,1080.89Z" style="fill:#ef3d28"/></svg>