<svg xmlns="http://www.w3.org/2000/svg" viewBox="0 0 1299.92 1312.99"><title>sil-</title><rect x="-224.76" y="-3498.6" width="5000" height="5000" style="fill:#fff"/><path d="M1190,987.22c-115.78-57.06-304-178.9-311.25-187.22-1.29-1.47-2.63-2.89-4-4.28-13-13.13-31.82-49.6-53.62-72.15H821L822.25,657c27.06-57.45,29.88-73.32,30.67-118.43,0,0,14.1,3.52,21.77-6.17S899,483,903,461.57s1.59-17.26,6.87-74.81c1.66-47.3-25.27-24.66-32.91-17.33a.55.55,0,0,1-.9-.61c3.49-8.47,10.62-35.9,13.71-56.88,3.7-25.11,1.26-73.78,1.21-84.29l.07-.42S892.06.07,651.47.07,412.33,227.24,412.33,227.24q0,.56,0,1.13c0,10.63-2.49,59.52,1.21,84.64,3.09,21,9.89,48.41,13.38,56.88a.55.55,0,0,1-.9.61c-7.63-7.33-34.57-30-32.91,17.33,5.29,57.55,2.91,53.4,6.87,74.81s20.62,61.15,28.29,70.85S450,539.65,450,539.65c.78,45.12,3.6,61,30.67,118.43l-.18,65.49h-.26c-21.8,22.56-42.17,59-55.13,72.15-1.37,1.39-2.72,2.81-4,4.28-7.26,8.32-195.47,130.16-311.25,187.22A196.8,196.8,0,0,0,.07,1163.74v149.17H1299.84V1163.74A196.8,196.8,0,0,0,1190,987.22Z" style="fill:#e9b22f"/></svg>