<svg xmlns="http://www.w3.org/2000/svg" viewBox="0 0 1164.92 1291.44"><title>sil-</title><rect x="-296" y="-1894.2" width="5000" height="5000" style="fill:#fff"/><path d="M834,841.51h4.19c50.75-70.85,75.38-205,75.38-205s4,47.24-6.53,71.36c15.84-32.26,14.45-64.64,14.45-64.64s7.13,43.36-.88,76.7c20.6-62.81,6-121.61,6-121.61l-13.82-84.17s-15.1-19.6-20.36-130.78-21.6-156.91-21.6-156.91C759.8-56.49,554.28,5.83,554.28,5.83c-44-5.4-60.18,7-60.18,7C343,24.92,287.94,301.56,287.94,301.56S249.75,475.18,249.5,508.09c15.91-98.53,22.61-92.71,22.61-92.71l-9.8,119.1s0,204,68.59,307C221.11,993.27,0,987.24,0,1117.9v173.54H1164.92V1117.9C1164.92,987.24,943.81,993.27,834,841.51Z" style="fill:#2976bc"/></svg>