<svg xmlns="http://www.w3.org/2000/svg" viewBox="0 0 1299.92 1353.81"><title>sil-</title><rect x="-1852.94" y="-3457.78" width="5000" height="5000" style="fill:#fff"/><path d="M795.32,27.15s.21.19.6.56C795.66,27.08,795.32,27.15,795.32,27.15Z"/><path d="M1190,1028c-115.78-57.06-304-178.9-311.25-187.22-1.29-1.47-2.63-2.89-4-4.28-12.83-13-34.7-49.54-56.28-72.15h-3.14V687s50.26-58.31,53.69-115.76c0,0,24.87,13.72,42.88-36.87S927.38,412.6,927.38,412.6s-2.57-57.45-29.15-38.59a52.64,52.64,0,0,0,2.38-4.93c4.38-10.14,12.71-35.26,6.2-68.81-1.93-10.82,6,0,6,0s3.43-30.87,0-43.73c5.21,3.76,6,11.15,6,11.15s9.43-72-7.72-72c-6.19-7.39.86-15.43.86-15.43s-16.29-42-58.31-41.16c3.86-42.87-36-91.32-36-91.32A43.29,43.29,0,0,1,821,64.46c-11.31-22.81-22.46-34.2-25.12-36.74.38.92.6,3.34-.6,9.73A95.54,95.54,0,0,0,746.88,23.3s7,6.32,0,11.15L731,14.29s1,10.93-2.14,15.86-32.58-9.43-32.58-9.43l10.29,15.43S663.06,7.33,641.83,5.29c27.33,12.43,25.72,23.15,25.72,23.15l-33.12-2A45,45,0,0,0,617,16C605.5,20.94,589.1,30.16,589.1,30.16s-14.58-19.29-34.3-30c4.39,16.61-10.72,35.59-10.72,35.59S517,24.37,536.68,4.22c-19.4,9.22-12.43,20-12.33,34.94S508.49,52,508.49,52c-15.22-7.61-24.55-31.08-24.55-31.08s-1.07,26.15,5.25,36.23c-9.75,6.54-24.87,30.33-28.3,37.3C444.39,86.21,435.6,88,435.6,88s8.47-1.07,17.15,12.86c-1,6.86-19.72,21-19.72,21s-8.79-8.68-23.15-3.86c17.15,7.07,10.29,13.29,10.29,13.29s-18.42,23.59-30.87,46.73c24.55-35.91,21-21.44,21-21.44l-16.25,46.23a123,123,0,0,0-6.58,50.42s12.25,66.32,10.41,104a36,36,0,0,0,1.42,11.82h0a52.68,52.68,0,0,0,2.38,4.93c-26.58-18.87-29.15,38.59-29.15,38.59S370,483.77,388,534.36s42.88,36.87,42.88,36.87C434.28,628.69,484.54,687,484.54,687v77.39H482.1c-21.8,22.56-44,59-57,72.15-1.37,1.39-2.72,2.81-4,4.28C413.86,849.14,225.65,971,109.87,1028A196.8,196.8,0,0,0,.07,1204.57v149.17H1299.84V1204.57A196.8,196.8,0,0,0,1190,1028Z" style="fill:#ef3e28"/></svg>